<svg width="98" height="98" viewBox="0 0 98 98" fill="none" xmlns="http://www.w3.org/2000/svg">
<g clip-path="url(#clip0)">
<path d="M75.1337 66.9667H62.067V57.7808C64.4605 56.3902 66.5346 54.5115 68.1545 52.2667H70.2337C70.8266 52.2667 71.3732 51.9453 71.6612 51.4271L75.8622 43.8648C78.5949 38.9391 80.0304 33.3996 80.0337 27.7667C80.0247 12.4225 67.5785 -0.00897847 52.2344 4.86563e-06C48.5326 0.0022507 44.8687 0.743988 41.4576 2.18214C29.1015 7.4088 22.6188 21.8948 26.7005 35.1608L30.4555 47.3667H24.5004C20.8921 47.3667 17.967 50.2918 17.967 53.9C17.9711 55.2918 18.4236 56.6452 19.2574 57.7596C13.2708 59.7479 10.0299 66.2131 12.0182 72.1994C13.3953 76.3453 17.0164 79.3424 21.3464 79.9206C22.1116 85.5901 26.9461 89.8235 32.667 89.8333H35.9337C42.2482 89.8333 47.367 84.7145 47.367 78.4C47.367 72.0855 42.2482 66.9667 35.9337 66.9667H31.0337V70.2333H35.9337C40.444 70.2333 44.1004 73.8897 44.1004 78.4C44.1004 82.9102 40.444 86.5667 35.9337 86.5667H32.667C28.7877 86.5618 25.4451 83.8331 24.6637 80.0333H32.667V76.7667H22.867C18.3568 76.7667 14.7004 73.1102 14.7004 68.6C14.7004 64.0897 18.3568 60.4333 22.867 60.4333H32.667V57.1667H24.5004C22.6962 57.1667 21.2337 55.7042 21.2337 53.9C21.2337 52.0958 22.6962 50.6333 24.5004 50.6333H32.667C33.5691 50.6335 34.3006 49.9024 34.3008 49.0004C34.3008 48.8375 34.2765 48.6756 34.2285 48.5198L34.1975 48.4234C35.867 52.3565 38.7692 55.6405 42.467 57.7808V68.6H45.7337V59.29C49.9559 60.8143 54.5782 60.8143 58.8004 59.29V68.6C58.8004 69.502 59.5317 70.2333 60.4337 70.2333H71.6351C70.8926 73.109 68.3037 75.1221 65.3337 75.1333H50.6337V78.4H65.3337C70.1106 78.3912 74.1866 74.9426 74.9867 70.2333H75.1337C79.6417 70.2386 83.2951 73.892 83.3004 78.4V94.7333H21.2337V89.8333H17.967V96.3667C17.967 97.2687 18.6984 98 19.6004 98H84.9337C85.8357 98 86.567 97.2687 86.567 96.3667V78.4C86.5599 72.0886 81.4453 66.9738 75.1337 66.9667ZM31.0337 29.4V32.6667H32.667V40.8333C32.6673 42.1351 32.7975 43.4334 33.0558 44.7092L29.8218 34.2004C26.2284 22.5155 31.8977 9.77387 42.7251 5.19074C55.1999 -0.0710452 69.5783 5.77629 74.8399 18.2511C76.1102 21.2627 76.7654 24.498 76.7671 27.7667C76.7648 32.8443 75.4722 37.838 73.0104 42.2788L71.3411 45.2809C71.6868 43.8236 71.8634 42.3311 71.867 40.8333V32.6667H73.5004V29.4H68.8013C66.5363 29.3971 64.5673 27.8451 64.0352 25.6433L60.3716 12.6257C60.174 11.9211 59.5321 11.4339 58.8004 11.4333C58.0705 11.4331 57.4292 11.9172 57.2291 12.6191L53.8628 24.451C53.1364 27.3573 50.5261 29.3973 47.5304 29.4H31.0337ZM52.267 57.1667C43.2464 57.1667 35.9337 49.854 35.9337 40.8333V32.6667H47.5304C52.011 32.6773 55.9247 29.6389 57.0249 25.2954L58.7987 19.0643L60.8845 26.4796C61.773 30.0397 64.9321 32.566 68.6004 32.6503V40.8333C68.6004 49.854 61.2877 57.1667 52.267 57.1667Z" fill="#469F49"/>
<path d="M44.1004 36.3418C42.5218 36.3418 41.2421 37.6215 41.2421 39.2001C41.2421 40.7787 42.5218 42.0585 44.1004 42.0585C45.679 42.0585 46.9587 40.7787 46.9587 39.2001C46.9569 37.6223 45.6784 36.3436 44.1004 36.3418ZM43.6921 39.2001C43.6921 38.9745 43.8748 38.7918 44.1004 38.7918C44.326 38.7918 44.5087 38.9745 44.5087 39.2001C44.5087 39.6493 43.6921 39.6493 43.6921 39.2001Z" fill="#469F49"/>
<path d="M60.4338 36.3418C58.8552 36.3418 57.5754 37.6215 57.5754 39.2001C57.5754 40.7787 58.8552 42.0585 60.4338 42.0585C62.0124 42.0585 63.2921 40.7787 63.2921 39.2001C63.2903 37.6223 62.0118 36.3436 60.4338 36.3418ZM60.0254 39.2001C60.0254 38.9745 60.2082 38.7918 60.4338 38.7918C60.6594 38.7918 60.8421 38.9745 60.8421 39.2001C60.8421 39.6493 60.0254 39.6493 60.0254 39.2001Z" fill="#469F49"/>
<path d="M55.9421 47.3662C55.9403 49.395 54.2959 51.0394 52.2671 51.0412C50.2383 51.0394 48.5939 49.395 48.5921 47.3662H46.1421C46.1421 50.749 48.8843 53.4912 52.2671 53.4912C55.6499 53.4912 58.3921 50.749 58.3921 47.3662H55.9421Z" fill="#469F49"/>
</g>
<defs>
<clipPath id="clip0">
<rect width="98" height="98" fill="white"/>
</clipPath>
</defs>
</svg>
