<svg width="30" height="33" viewBox="0 0 30 33" fill="none" xmlns="http://www.w3.org/2000/svg">
<path d="M12.4786 26.5272C12.8531 26.9196 13.447 26.9041 13.8038 26.4916C14.1609 26.0791 14.1459 25.4263 13.7714 25.0334L6.57984 17.5306H25.3125C25.83 17.5306 26.25 17.0686 26.25 16.4993C26.25 15.93 25.83 15.4681 25.3125 15.4681L6.60984 15.4681L13.7714 7.96468C14.1464 7.57177 14.1609 6.91899 13.8038 6.50649C13.6195 6.29405 13.3725 6.1868 13.125 6.1868C12.8925 6.1868 12.66 6.28116 12.4786 6.47142L4.29938 15.0411C3.945 15.4304 3.75 15.9481 3.75 16.4993C3.75 17.0505 3.945 17.5682 4.31578 17.975L12.4786 26.5272Z" fill="#469F49"/>
</svg>
