<svg width="98" height="98" viewBox="0 0 98 98" fill="none" xmlns="http://www.w3.org/2000/svg">
<g opacity="0.98" clip-path="url(#clip0)">
<rect width="98" height="98" fill="white"/>
<path d="M49 86.5156C48.2072 86.5156 47.5645 87.1584 47.5645 87.9512C47.5645 88.744 48.2072 89.3867 49 89.3867C49.7928 89.3867 50.4356 88.744 50.4356 87.9512C50.4356 87.1584 49.7928 86.5156 49 86.5156ZM49 77.9023C48.2072 77.9023 47.5645 78.5451 47.5645 79.3379C47.5645 80.1307 48.2072 80.7734 49 80.7734C49.7928 80.7734 50.4356 80.1307 50.4356 79.3379C50.4356 78.5451 49.7928 77.9023 49 77.9023ZM49 95.1289C48.2072 95.1289 47.5645 95.7716 47.5645 96.5645C47.5645 97.3573 48.2072 98 49 98C49.7928 98 50.4356 97.3573 50.4356 96.5645C50.4356 95.7716 49.7928 95.1289 49 95.1289ZM77.2022 65.6776L70.8123 63.5274C74.3447 61.0113 76.5587 56.8819 76.5587 52.4244C76.5679 52.4061 76.5587 27.5589 76.5587 27.5589C76.5587 20.2001 73.6924 13.2798 68.4877 8.07313C63.282 2.86707 56.3611 0 49 0C44.2719 0 39.6071 1.21792 35.5097 3.52226C34.8187 3.91081 34.5735 4.78611 34.9621 5.47709C35.3507 6.16826 36.2261 6.41307 36.9169 6.0247C40.5856 3.96173 44.7638 2.87109 49 2.87109C55.5942 2.87109 61.794 5.43938 66.4574 10.1028C71.1199 14.7672 73.6876 20.9664 73.6876 27.5587V27.5652C72.8538 27.0867 71.8891 26.8114 70.8609 26.8114H69.4814C65.6407 26.1518 61.8736 25.0633 58.2832 23.5732C55.5507 22.4391 52.8953 21.0612 50.391 19.4779C49.5139 18.9232 48.3697 18.9747 47.5438 19.6059C45.5901 21.0983 43.4804 22.389 41.273 23.4417C37.3068 25.3332 33.039 26.4665 28.5875 26.8114H27.1393C26.1111 26.8114 25.1464 27.0867 24.3126 27.5652V27.5587C24.3126 20.879 26.938 14.6225 31.7051 9.94183C32.2709 9.38637 32.2792 8.47757 31.7237 7.91178C31.1684 7.34617 30.2594 7.33756 29.6936 7.89321C24.3722 13.118 21.4415 20.1022 21.4415 27.5587V52.4243C21.4415 56.8817 23.6555 61.0113 27.1879 63.5272L20.7978 65.6776C15.5342 67.4493 11.9976 72.3705 11.9976 77.9234V96.5645C11.9976 97.3573 12.6403 98 13.4331 98C14.2259 98 14.8687 97.3573 14.8687 96.5645V77.9234C14.8687 73.6045 17.6195 69.7768 21.7137 68.3988L24.2085 67.5593C23.8393 69.0766 23.676 70.6406 23.7334 72.1889C23.7878 73.6589 24.0359 75.1038 24.4652 76.5051C21.6766 77.3423 19.6385 79.9316 19.6385 82.9893V88.8316C19.6385 90.2769 20.8143 91.4526 22.2594 91.4526H23.8682C24.661 91.4526 25.3037 90.8098 25.3037 90.017C25.3037 89.2242 24.661 88.5815 23.8682 88.5815H22.5094V82.9892C22.5094 80.8402 24.2569 79.0919 26.4055 79.0906C26.4066 79.0906 26.4076 79.0908 26.4087 79.0908C26.4099 79.0908 26.411 79.0906 26.4122 79.0906C28.5601 79.0929 30.3069 80.8408 30.3069 82.9892V88.5815H28.9483C28.1555 88.5815 27.5128 89.2242 27.5128 90.017C27.5128 90.8098 28.1555 91.4526 28.9483 91.4526H30.5571C32.0022 91.4526 33.178 90.2768 33.178 88.8316V82.9893C33.178 79.5999 30.6742 76.7847 27.4192 76.2953C26.932 74.9365 26.6556 73.5237 26.6022 72.0826C26.5316 70.1716 26.8652 68.2302 27.5677 66.4289L37.3602 63.1334L47.6351 73.4081C48.4744 74.2555 49.9058 74.2595 50.7481 73.4081L53.5838 70.5724C54.1444 70.0118 54.1444 69.1028 53.5838 68.5424C53.0232 67.9818 52.1142 67.9818 51.5538 68.5424L49.1914 70.9041L40.0918 61.8045C41.441 60.6316 42.0558 58.8436 41.918 57.0396C44.1167 57.8064 46.4731 58.2273 48.9233 58.2359C51.3928 58.2445 53.811 57.8416 56.0821 57.0632C55.8476 58.894 56.6957 60.8863 58.1201 61.9754L56.2809 63.8147C55.7203 64.3753 55.7203 65.2843 56.2809 65.8447C56.8416 66.4053 57.7505 66.4053 58.311 65.8447L60.9262 63.2295L69.6683 66.1714C70.3294 67.8528 70.6707 69.6713 70.6536 71.4709C70.6381 73.1024 70.3265 74.7501 69.7519 76.2861C66.0201 76.7746 63.1285 79.9728 63.1285 83.8357C63.1285 88.0356 66.5453 91.4524 70.7451 91.4524C74.9449 91.4524 78.3617 88.0358 78.3617 83.8359C78.3617 80.32 75.9665 77.3542 72.7225 76.4812C73.2336 74.8703 73.5088 73.1771 73.5247 71.4983C73.5381 70.0928 73.3701 68.6775 73.0341 67.304L76.2865 68.3984C80.3809 69.7766 83.1316 73.6043 83.1316 77.9232V96.5643C83.1316 97.3571 83.7743 97.9998 84.5671 97.9998C85.3599 97.9998 86.0027 97.3571 86.0027 96.5643V77.9232C86.0027 72.3705 82.4661 67.4495 77.2022 65.6776ZM70.7872 29.6825H70.8609C72.4161 29.6825 73.6815 30.945 73.6876 32.4987V32.5207C73.6807 34.0952 72.3688 35.382 70.7872 35.3368V29.6825ZM24.3124 32.4989C24.317 30.9234 25.633 29.6383 27.2128 29.6827V35.3372C25.6312 35.3809 24.3191 34.0992 24.3124 32.5211V32.4989ZM39.0469 57.8181C39.0469 58.8469 38.3927 59.7576 37.4176 60.0847L30.8315 62.3012C26.9129 60.6237 24.3126 56.7165 24.3126 52.4244V37.4548C25.2134 37.9754 26.2089 38.2261 27.3024 38.2085C27.984 45.8703 32.5783 52.4239 39.0469 55.7986V57.8181ZM48.933 55.3648C38.5397 55.3288 30.0839 46.7441 30.0839 36.228V29.5552C34.4294 29.0781 38.6032 27.8955 42.5089 26.0332C44.8174 24.9324 47.0266 23.591 49.0795 22.0446C51.6558 23.6561 54.3808 25.0622 57.1826 26.225C60.6331 27.6572 64.2384 28.7389 67.9159 29.4461V36.4489C67.9159 41.5139 65.94 46.2723 62.3523 49.8477C58.7036 53.4841 54.1458 55.383 48.933 55.3648ZM67.1687 62.301L60.5811 60.0841C59.6074 59.7576 58.9531 58.8469 58.9531 57.8181V55.8403C60.9296 54.8232 62.7591 53.4959 64.3791 51.8814C68.0932 48.1802 70.3064 43.378 70.7166 38.2081C71.7722 38.2233 72.823 37.9568 73.6878 37.4544V52.4241C73.6876 56.7164 71.0873 60.6237 67.1687 62.301ZM75.4906 83.8359C75.4906 86.4527 73.3618 88.5815 70.7453 88.5815C68.1286 88.5815 65.9998 86.4527 65.9998 83.8359C65.9998 81.2211 68.1257 79.0937 70.7397 79.0906C70.7413 79.0906 70.7428 79.0908 70.7443 79.0908C70.7457 79.0908 70.747 79.0906 70.7484 79.0906C73.3635 79.0921 75.4906 81.2202 75.4906 83.8359ZM58.2826 30.8535C57.4898 30.8535 56.8471 31.4963 56.8471 32.2891V35.573C56.8471 36.3658 57.4898 37.0086 58.2826 37.0086C59.0755 37.0086 59.7182 36.3658 59.7182 35.573V32.2891C59.7182 31.4963 59.0755 30.8535 58.2826 30.8535ZM51.0383 44.4928C50.7152 44.7223 50.0373 45.1122 49.1264 45.1447C48.0989 45.1805 47.3269 44.7514 46.9604 44.4916C46.3136 44.0332 45.4175 44.1861 44.9591 44.8331C44.5006 45.4798 44.6536 46.376 45.3005 46.8344C45.9358 47.2846 47.2414 48.0181 49.0012 48.0181C50.5429 48.0181 51.9747 47.3493 52.7009 46.8335C53.3472 46.3743 53.499 45.4781 53.0398 44.8317C52.5808 44.1854 51.6847 44.0336 51.0383 44.4928ZM39.7174 30.8535C38.9246 30.8535 38.2818 31.4963 38.2818 32.2891V35.573C38.2818 36.3658 38.9246 37.0086 39.7174 37.0086C40.5102 37.0086 41.1529 36.3658 41.1529 35.573V32.2891C41.1529 31.4963 40.5104 30.8535 39.7174 30.8535Z" fill="#469F49"/>
</g>
<defs>
<clipPath id="clip0">
<rect width="98" height="98" fill="white"/>
</clipPath>
</defs>
</svg>
