<svg width="98" height="98" viewBox="0 0 98 98" fill="none" xmlns="http://www.w3.org/2000/svg">
<g opacity="0.98">
<rect width="98" height="98" fill="white"/>
<g clip-path="url(#clip0)">
<path d="M97.1935 12.3681C97.1353 12.3133 85.6239 1.33521 85.6239 1.33521C85.1839 0.912969 84.7287 0.476562 83.8789 0.476562H37.5356C36.1819 0.476562 35.0806 1.57772 35.0806 2.93135V10.4695L18.7469 13.2694C17.4377 13.4991 16.5573 14.752 16.7841 16.0599L17.6131 20.8933C12.304 22.6799 6.85334 24.5216 1.5914 26.4117C0.348021 26.8663 -0.304483 28.2488 0.139196 29.4997L10.6062 58.5965C10.8168 59.182 11.3686 59.5466 11.9572 59.5466C12.1184 59.5466 12.2826 59.5193 12.443 59.4615C13.1891 59.1931 13.5763 58.3708 13.3079 57.6247L2.99574 28.9582C7.95317 27.1833 13.0871 25.4461 18.1044 23.7573L23.0371 52.5151L28.7131 85.6345C28.9181 86.8036 29.9457 87.6355 31.1057 87.6355C31.237 87.6355 31.3702 87.6248 31.5038 87.6028L46.8768 84.9646L58.8894 82.9055L40.8224 89.3993L26.5751 94.5219L15.5103 63.7459C15.2421 62.9998 14.42 62.6126 13.6737 62.8807C12.9276 63.1489 12.5404 63.9712 12.8086 64.7173L24.0303 95.9307C24.3892 96.9122 25.3191 97.5224 26.3019 97.5224C26.5735 97.5224 26.8494 97.4757 27.1181 97.3775L41.7934 92.1012L75.1161 80.1241L81.4821 79.0329H95.5449C96.8985 79.0329 97.9999 77.9293 97.9999 76.5726V13.9856C98 13.1264 97.5338 12.6881 97.1935 12.3681ZM93.39 12.708H86.2066L86.0285 12.7088C85.6846 12.7111 84.8793 12.717 84.6751 12.5141C84.628 12.4672 84.5729 12.3106 84.5729 12.0199L84.5562 4.28421L93.39 12.708ZM95.129 76.1615H37.9517V48.1842C37.9517 47.3914 37.3089 46.7486 36.5161 46.7486C35.7233 46.7486 35.0806 47.3914 35.0806 48.1842V76.5722C35.0806 77.9287 36.1819 79.0325 37.5356 79.0325H64.4879L46.3914 82.1345L31.4651 84.6961L25.8669 52.0297L19.6904 16.0205L35.0804 13.3823V41.5232C35.0804 42.3161 35.7231 42.9588 36.516 42.9588C37.3088 42.9588 37.9515 42.3161 37.9515 41.5232V3.34746H81.6831L81.7018 12.0231C81.7018 13.0747 82.0216 13.9253 82.6523 14.5516C83.6214 15.5138 84.9913 15.5808 85.8417 15.5808C85.9148 15.5808 85.9841 15.5802 86.049 15.5799L95.129 15.5793V76.1615Z" fill="#469F49"/>
<path d="M44.8713 22.7666C44.8713 23.5594 45.5141 24.2021 46.3069 24.2021H87.3513C88.1441 24.2021 88.7868 23.5594 88.7868 22.7666C88.7868 21.9738 88.1441 21.3311 87.3513 21.3311H46.3069C45.5141 21.3311 44.8713 21.9738 44.8713 22.7666Z" fill="#469F49"/>
<path d="M87.3513 31.5293H46.3069C45.5141 31.5293 44.8713 32.172 44.8713 32.9648C44.8713 33.7576 45.5141 34.4004 46.3069 34.4004H87.3513C88.1441 34.4004 88.7868 33.7576 88.7868 32.9648C88.7868 32.172 88.1441 31.5293 87.3513 31.5293Z" fill="#469F49"/>
<path d="M87.3513 41.7285H46.3069C45.5141 41.7285 44.8713 42.3713 44.8713 43.1641C44.8713 43.9569 45.5141 44.5996 46.3069 44.5996H87.3513C88.1441 44.5996 88.7868 43.9569 88.7868 43.1641C88.7868 42.3713 88.1441 41.7285 87.3513 41.7285Z" fill="#469F49"/>
<path d="M87.3513 51.9268H46.3069C45.5141 51.9268 44.8713 52.5695 44.8713 53.3623C44.8713 54.1551 45.5141 54.7979 46.3069 54.7979H87.3513C88.1441 54.7979 88.7868 54.1551 88.7868 53.3623C88.7868 52.5695 88.1441 51.9268 87.3513 51.9268Z" fill="#469F49"/>
<path d="M87.3513 62.126H46.3069C45.5141 62.126 44.8713 62.7687 44.8713 63.5615C44.8713 64.3543 45.5141 64.9971 46.3069 64.9971H87.3513C88.1441 64.9971 88.7868 64.3543 88.7868 63.5615C88.7868 62.7687 88.1441 62.126 87.3513 62.126Z" fill="#469F49"/>
</g>
</g>
<defs>
<clipPath id="clip0">
<rect width="98" height="98" fill="white"/>
</clipPath>
</defs>
</svg>
