<svg width="24" height="24" viewBox="0 0 24 24" fill="none" xmlns="http://www.w3.org/2000/svg">
<g clip-path="url(#clip0)">
<path d="M11.9948 0C5.37087 0 0 5.289 0 11.812C0 18.335 5.37087 23.625 11.9948 23.625C18.6188 23.625 23.9907 18.335 23.9907 11.812C23.9907 5.289 18.6188 0 11.9948 0ZM14.4919 18.307C13.8745 18.547 13.383 18.729 13.0144 18.855C12.6468 18.981 12.2193 19.044 11.7329 19.044C10.9855 19.044 10.4036 18.864 9.98928 18.505C9.57496 18.146 9.36882 17.691 9.36882 17.138C9.36882 16.923 9.38405 16.703 9.41451 16.479C9.44599 16.255 9.49575 16.003 9.56379 15.72L10.3366 13.032C10.4046 12.774 10.4635 12.529 10.5102 12.301C10.5569 12.071 10.5793 11.86 10.5793 11.668C10.5793 11.326 10.5072 11.086 10.364 10.951C10.2188 10.816 9.94561 10.75 9.5384 10.75C9.33937 10.75 9.13424 10.779 8.92404 10.84C8.71586 10.903 8.53511 10.96 8.38685 11.016L8.59096 10.188C9.09667 9.985 9.58105 9.811 10.0431 9.667C10.5051 9.521 10.9418 9.449 11.3531 9.449C12.0954 9.449 12.6681 9.627 13.0713 9.979C13.4724 10.332 13.6745 10.791 13.6745 11.355C13.6745 11.472 13.6602 11.678 13.6328 11.972C13.6054 12.267 13.5536 12.536 13.4785 12.783L12.7097 15.463C12.6468 15.678 12.5909 15.924 12.5402 16.199C12.4904 16.474 12.466 16.684 12.466 16.825C12.466 17.181 12.5463 17.424 12.7087 17.553C12.8692 17.682 13.1505 17.747 13.5485 17.747C13.7364 17.747 13.9466 17.714 14.1842 17.65C14.4198 17.586 14.5904 17.529 14.6981 17.48L14.4919 18.307ZM14.3558 7.429C13.9974 7.757 13.5658 7.921 13.0611 7.921C12.5574 7.921 12.1228 7.757 11.7613 7.429C11.4018 7.101 11.22 6.702 11.22 6.236C11.22 5.771 11.4028 5.371 11.7613 5.04C12.1228 4.708 12.5574 4.543 13.0611 4.543C13.5658 4.543 13.9984 4.708 14.3558 5.04C14.7143 5.371 14.894 5.771 14.894 6.236C14.894 6.703 14.7143 7.101 14.3558 7.429Z" fill="#469F49"/>
</g>
<defs>
<clipPath id="clip0">
<rect width="23.9907" height="23.625" fill="white"/>
</clipPath>
</defs>
</svg>
